<svg xmlns="http://www.w3.org/2000/svg" viewBox="0 0 586.95 448.29"><defs><style>.cls-1{fill:#ebe8de;stroke:#000;stroke-miterlimit:10;}</style></defs><title>Asset 2</title><g id="Layer_2" data-name="Layer 2"><g id="Layer_2-2" data-name="Layer 2"><path class="cls-1" d="M41,402.69c1.83,1.28,4.38,2.59,7,2,2.89-.65,3.65-3.1,6-3,3.09.13,4.46,4.5,6,4,1.1-.36.73-2.71,2-7a34.38,34.38,0,0,1,2-5c1.29-2.81,3.38-7.37,7-11,5.65-5.66,14-8,14-8s33.84,2.1,36,12c.32,1.47-.36,1.72,0,4,.87,5.46,5.25,7,8,11,5.56,8.18-.42,19.63,3,21,1.94.78,3.93-2.87,7-2a6.24,6.24,0,0,1,4,6c-.19,3-3.15,3.39-4,7-.72,3.07.49,6.71,2,7,2,.39,3-5.42,7-6,1.76-.26,2,.8,7,2,3.41.83,3.38.35,5,1,4.34,1.73,5.41,5.44,7,5,1.74-.49.8-5.07,3-6,1.87-.79,5.12,1.45,5,3-.1,1.31-2.57,1.34-3,3-.48,1.84,1.75,4.86,4,5,3.74.23,6.6-7.57,8-7,1.18.48-.71,6.09,1,7,1,.54,2.09-1.19,5-2,3.58-1,4.63.87,7,0,4.26-1.57,4.13-8.82,7-9,1.72-.11,2.75,2.45,4,2s.33-3.56,2-5c2.2-1.91,6,1.71,9,0,3.14-1.81,2.31-7.82,4-8,1.33-.14,1.8,3.62,4,4,1.49.26,2.51-1.26,7-6s5.14-5,5-6c-.46-3.24-8.91-1.91-12-7-1.54-2.54.26-3.35,1-14,.5-7.3,0-11.63,3-14a30.49,30.49,0,0,0,3-2c.81-.7,3.93-3.39,4-6,.09-3.58-5.64-3.6-9-9-3.53-5.67.88-8.72-3-16-1.58-3-3.78-5.21-3-8,.55-2,2.1-2.49,2-4-.16-2.46-4.41-2.54-6-5-3.61-5.62,9.5-19.2,18-28,3.78-3.92,6.06-5.61,9-6,2.19-.29,4,.23,5-1s-.26-2.6,0-6a12.57,12.57,0,0,1,2-6c1.73-2.49,3.46-2.42,5-4,3.23-3.32.3-8.46,1-13,1.58-10.3,21.34-14.45,43-19,6.57-1.38,13.17-2.4,16,1,2.15,2.58.65,5.94,4,12,1.08,1.95,2.84,5.15,5,5,2-.13,3.47-3,4-5,1-3.61-.59-6.77,0-7s2.67,4.32,4,4c1-.24.28-3,2-5,2.13-2.48,7-2.59,8-1s-1.88,3.8-1,5,4.41.31,7-1c3.78-1.91,4.78-4.43,6-4,1.91.67,0,7.05,3,9a3.74,3.74,0,0,0,4,0c2-1.57,0-5.66,2-7,1.17-.79,2.88-.06,3,0,2.91,1.29,2.64,5.85,4,6,1.69.19,2.62-6.78,5-7,3.2-.3,5.39,11.94,10,12,2.27,0,3.11-2.94,6-3,2.49-.05,4.59,2.1,6,4a6.38,6.38,0,0,0,0-5c-1.34-2.53-4.43-2.1-5-4-.65-2.18,2.47-5.82,6-7,2.61-.87,3.86.13,5-1,2.1-2.08-.56-7.07,1-8,1.13-.67,3,1.65,4,1,1.23-.77.21-5-1-8-1.63-4-3.17-4.65-3-7a6.93,6.93,0,0,1,3-5c2.91-2,5.81-.26,7-2,.75-1.09-.3-1.89,0-5,.14-1.47.39-4,2-5,1.4-.86,2.28.41,4.27-.09,3.9-1,5.7-7.07,6-8,.48-1.64.23-1.79.76-2.94,1.44-3.12,4-3.36,4-5,.06-1.93-3.41-2.26-4-5-.51-2.38,1.73-3.95,1-5-1-1.52-5.61,1.88-9,0-2.87-1.59-1.77-5.23-5-7-2.4-1.32-3.67.32-6-1-3.31-1.88-2.41-6.14-5-7s-4.42,2.67-7,2c-2.84-.74-3.79-5.87-4-7-1.64-8.64,5.27-22.54,17-33,23.45-20.91,63.57-25.79,76-11,3.9,4.65,5.88,12.19,10,12,5-.24,8-11.74,12-11,2.27.42,2.55,4.33,6,5,1.22.24,3.23.15,4-1,1.76-2.62-4.14-8.92-3-10,.71-.67,3,1.81,5,1,2.44-1,2.44-6.06,3-6s-.28,2.86,1.17,5.1a7,7,0,0,0,6.83,2.9c2.91-.62,3-3.35,6-4,2.58-.56,3.25,1.26,6,1,4.45-.42,7-5.62,8-5s-1.46,4.63,0,6c1.05,1,2.75-.68,5,0,3.39,1,2.91,5.87,6,7,.49.18,1.52.43,8-3,5.31-2.81,8-4.25,9-6,1.37-2.36.81-3.85,3-7,1.28-1.84,1.94-2,2-3,.18-2.85-4.94-4.09-5-7,0-1.74,1.77-2.71,3-4,5.3-5.57.8-18.17-2-26-2.63-7.35-5.71-16-10-16-3.72,0-5,6.45-10,7-3.63.4-6.93-2.63-9-5-10.64-5.25-15-11.27-17-16-2.13-5.08-1.7-9.13-6-14-3.38-3.83-6.51-4.56-7-8s2.31-4.68,2-9c-.18-2.47-1.39-6.14-4-7-3.16-1-7.52,2.3-9,6-1.66,4.16.62,8.06-1,9-1.32.77-2.89-1.8-5.87-1.57A7.38,7.38,0,0,0,499,19.69c-.47,2.41,1.07,3.51,3,8,.44,1,4.33,10,2,12-2.16,1.81-8.29-3.65-10-2s2.7,8.57,2,9c-.91.57-6.84-12.22-14-12-3.68.11-7.37,3.64-7,6,.59,3.71,11,2.9,12,7,.82,3.4-6.08,5-10,13-3.57,7.27-.3,10.91-4,15-5,5.57-16.7,5-19,1-1.16-2,.54-4-1-6.05-1.92-2.47-6.93-2.63-8-.95-1.19,1.92,3.31,5.41,2,8-.66,1.32-2.39,1.52-5,2-11.3,2.07-12.37,4.45-15,3s-1.56-3.75-6.18-9.73c-1.79-2.32-2.13-2.21-3.82-4.27-6.1-7.4-4.29-11.93-8-14-4.32-2.41-7.56,3.29-16,2-6-.92-8.92-4.51-11-3-2.51,1.83.75,7.83-2,10-1.65,1.3-3.63-.22-10-1-4.78-.58-7.21-.88-10,0-4.73,1.49-9.51,6-10,11-.3,3,1.12,5.11,0,6-1.53,1.22-4.66-2.27-8-1-1.8.68-3.29,2.61-3,4,.41,1.92,4.07,2.16,4,3s-3.72,1.21-10,2c-6,.76-7.75,1.05-8,2-.44,1.7,4.42,3.74,4,5-.64,1.9-12-2.12-15,2-1.59,2.2,0,5.68-1,6s-2.21-4.41-6-6-9.21.32-10,3,3.11,4.91,2,8c-.56,1.56-1.75,1.53-2,3-.36,2.15,2.06,3,3,6s.11,6.8-2,8-3.91-1-6,0c-2.73,1.25-2.46,6.17-3,9-2,10.44-20.14,20.79-35,17-7.72-2-16.75-8.31-17-15-.11-3.07,1.69-4.42,1-8-.91-4.74-5.43-9.51-9-9-4.12.59-3.62,8.5-9,10-.48.13-3-.24-8-1s-6.8-1.09-7-2c-.32-1.44,3.36-3,3-4-.45-1.24-6.37.43-7-1s4-3.09,4.74-7.34c.38-2.1-.16-4.89-1.74-5.66-2.09-1-4,2.49-7,2-3.5-.57-3.24-5.66-8-8-2.36-1.16-5.9-1.62-8,0-1.54,1.18-1.27,2.67-3,7-1.11,2.78-1.86,4.66-3,6-4.33,5.1-15.27,3.51-22,0-2-1-5.77-3-6-6-.18-2.31,1.92-3.19,2-6,.11-3.64-3.26-7.42-5-7-2.12.52-.18,6.92-4,10-2.07,1.67-4.71,1.45-10,1-7.88-.66-10.67-3-14-1-2.07,1.22-2.15,2.78-4,3-3,.35-4.75-3.51-7-3-1,.22-2.14,1.27-3,5,3.69,3.32,4.28,4.54,4,5-.54.88-4-1.5-7,0-2.1,1.07-3.68,4-3,6,1.1,3.29,7.5,2.5,8,5,.39,2-3.46,2.73-7,8-2.33,3.46-2,5.15-4,6-3.31,1.42-7.73-1.8-8-2-2.59-1.93-2.16-3.33-4-4-3.06-1.12-7,1.75-10,4-2.42,1.79-2.45,2.38-5,4-3.18,2-4.12,1.71-5,3-2.11,3.1,1.55,7.42,0,9-2,2-8.53-4.14-12-2-2.66,1.63-.48,6.25-2,15-.33,1.91-2.22,6.63-6,16-4.47,11.09-5.67,13.68-8,14-2.7.37-6.9-2.3-8-3-1.82-1.16-2.54-2-4-2-2.44,0-3.6,2.47-5,2s-.83-3.38-2-4c-2.8-1.48-16.2,9.92-13,17,1.88,4.15,9.25,6.34,13,4,3.49-2.18,3.55-8.11,5-8,1.17.09.84,3.91,3,5,3,1.53,8.22-3.8,9-3s-6.77,7.56-5,12a5.15,5.15,0,0,0,5,3c3.07-.42,3.72-5,6-5,.39,0,1.84.18,4,5,1.89,4.22,2.22,7.3,3,12,1.82,11,2.84,11.26,2,14-1.55,5.08-5.82,6.53-5,9,.56,1.69,2.72,1.53,8,4,4,1.87,8,3.76,8,6,0,1.58-2,1.84-6,6-1.9,2-2.86,3-3.63,4.64-1.66,3.55-1.77,8.65.63,10.36,1.5,1.07,2.76,0,4,1,2.74,2.29.25,10.83-2,11-1.19.09-1.82-2.2-3-2s-2,2.73-2,5c.1,5,4.57,5.61,5,10,.47,4.78-4.5,7.33-3,11,.89,2.19,3.35,2.95,3,4-.42,1.28-4.09.33-4.91,1.92-.68,1.32.73,4.14,2.91,5.08,3.52,1.53,6.24-3.07,10-2s6.53,7.5,5,12c-.28.83-1,3-3,4-1.79.87-3.23,0-4,1-1.05,1.32,1,3.7,0,5-.89,1.11-2.81-.13-4,1-1.46,1.38.52,4.11-1,6-1.19,1.48-3,.57-4,2-1.37,2,1,5.25,0,6s-3.07-1.65-4-1c-1.2.83,1.6,5.21,0,7-1.31,1.46-4.42-.09-5,1s3.23,3,4,7c.53,2.79-1,3.79,0,6,1,2.36,3.2,2.28,4,4C46.68,394.17,46.34,397,41,402.69Z"/></g></g></svg>