<svg xmlns="http://www.w3.org/2000/svg" viewBox="0 0 436.5 394.39"><defs><style>.cls-1{fill:#afafaf;}.cls-1,.cls-10,.cls-11,.cls-12,.cls-13,.cls-14,.cls-15,.cls-2,.cls-3,.cls-4,.cls-5,.cls-6,.cls-7,.cls-8,.cls-9{stroke:#000;stroke-miterlimit:10;}.cls-2{fill:none;}.cls-3{fill:#9f9f9f;}.cls-4{fill:gray;}.cls-5{fill:#acacac;}.cls-6{fill:#999;}.cls-7{fill:#adadad;}.cls-8{fill:#c4c4c4;}.cls-9{fill:#989898;}.cls-10{fill:#666;}.cls-11{fill:#bcbcbc;}.cls-12{fill:#bbb;}.cls-13{fill:#c5c5c5;}.cls-14{fill:#878787;}.cls-15{fill:#8d8d8d;}</style></defs><title>Asset 1</title><g id="Layer_2" data-name="Layer 2"><g id="Layer_2-2" data-name="Layer 2"><path class="cls-1" d="M130,89.85c-17,13-40,17-61,17-15,0-42-67-38-81,4-24,49-28,62-24C107,2.85,136,67.85,130,89.85Z"/><path class="cls-2" d="M63,143.85"/><path class="cls-3" d="M102,133.85c-13.67,3.33-25.33,6.67-39,10l6-37c20-2,39-2,59-16C119.33,105.52,110.66,119.18,102,133.85Z"/><path class="cls-4" d="M63,143.85l-22-4a127.69,127.69,0,0,0-.44-22.5c-4-37-23.45-63.68-35.56-77.5,1-10,20-23,36-29-1.87.7-11,6-10,23,4,32,29,74,38,73Z"/><path class="cls-5" d="M256,369.85l-47,15c-105-91-194-253-208-317-2-9.21,2.67-18.67,4-28,20,25,40.19,58.91,36,100,1.81,3.74,4.55,9.31,8,16,34.12,66.09,94,154,114,159,0,0,27.63,37.21,62,53.07a46.72,46.72,0,0,0,5,1.93C240.1,373,249.5,371.62,256,369.85Z"/><path class="cls-6" d="M184,284.85l1,10c-9.26,10.44-16.71,21-22,20-16-3-74-82-122-175l21,4c.54,3.79-.31,10.39,3,17,6,12,62,109,86,131C154.29,294.87,169,292.56,184,284.85Z"/><path class="cls-4" d="M185,294.85c17,17,53,53,65,50,.33,7.67.67,18.33,1,26-33,7-73-38-88-56C169,313.85,179,302.85,185,294.85Z"/><path class="cls-1" d="M307,309.85c2,9-22,25-57,35-8.86,2.53-45-28-65-50-1-1-1-7.49-1-10,17-15,33-25,56-30C253,255.85,300,296.85,307,309.85Z"/><path class="cls-7" d="M192,277.85l-9,7c-13.93,7-27.32,12.4-32,7-26-30-66-91-88-136-2.21-4.51-.11-9.18,0-12l30-8C114,180.85,155,242.85,192,277.85Z"/><path class="cls-8" d="M211,265.85l-19,12c-42-44-73-90-99-142l9-2c2,16,19,37,31,55,35,47,48.09,67.72,61,81C197.9,273.87,208.22,266.88,211,265.85Z"/><path class="cls-9" d="M307,311.85c-6,15-38,27-57,33l1,26c14-3,27-7,41-17C298,341.85,307,327.85,307,311.85Z"/><path class="cls-10" d="M289,391.85l-8-7.13a8.21,8.21,0,0,1-7-.87l-18-14c0-5,5-10,12-9l18,15a8.27,8.27,0,0,1-.42,4.23l7.42,5.77C294,388.85,293,390.85,289,391.85Z"/><path class="cls-4" d="M291,390.85l23,3,2-4c-7.67-.67-14.33-1.33-22-2A2.65,2.65,0,0,1,291,390.85Z"/><path class="cls-10" d="M316,389.85l-2,4c11,1,12-16.67,18-25,0-3-5-5-8-4C321,374.85,321,386.85,316,389.85Z"/><path class="cls-10" d="M337,388.85l-2,4c11,1,12-16.67,18-25,0-3-5-5-8-4C342,373.85,342,385.85,337,388.85Z"/><path class="cls-10" d="M358,388.85l-2,4c11,1,12-16.67,18-25,0-3-5-5-8-4C363,373.85,363,385.85,358,388.85Z"/><path class="cls-10" d="M379,387.85l-2,4c11,1,12-16.67,18-25,0-3-5-5-8-4C384,372.85,384,384.85,379,387.85Z"/><path class="cls-10" d="M400,387.85l-2,4c11,1,12-16.67,18-25,0-3-5-5-8-4C405,372.85,405,384.85,400,387.85Z"/><path class="cls-10" d="M420,386.85l-2,4c11,1,12-16.67,18-25,0-3-5-5-8-4C425,371.85,425,383.85,420,386.85Z"/><path class="cls-11" d="M335,392.85l2-4c-5-1-6.2-16.17-6-19-1,2-1,3-2,5C328,384.85,331,391.85,335,392.85Z"/><path class="cls-12" d="M356,392.85l2-4c-5-1-6.2-16.17-6-19-1,2-1,3-2,5C349,384.85,352,391.85,356,392.85Z"/><path class="cls-12" d="M377,391.85l2-4c-5-1-6.2-16.17-6-19-1,2-1,3-2,5C370,383.85,373,390.85,377,391.85Z"/><path class="cls-12" d="M398,391.85l2-4c-5-1-6.2-16.17-6-19-1,2-1,3-2,5C391,383.85,394,390.85,398,391.85Z"/><path class="cls-12" d="M418,390.85l2-4a31.34,31.34,0,0,1-5-19c-1,2-1,3-2,5a19.87,19.87,0,0,0,1.13,12.38A19,19,0,0,0,418,390.85Z"/><path class="cls-2" d="M415,392.85"/><path class="cls-13" d="M53,30.85c5.32-11,18.07-20.83,30.58-19.52C107.52,13.83,126,56.52,111,77.85A30.54,30.54,0,0,1,83.57,90.2C60.6,87.61,41.89,53.88,53,30.85Z"/><ellipse class="cls-14" cx="80.4" cy="40.57" rx="2.4" ry="3.23" transform="translate(-5.14 68.73) rotate(-45)"/><ellipse class="cls-14" cx="93.4" cy="54.57" rx="2.4" ry="3.23" transform="translate(-11.23 82.02) rotate(-45)"/><ellipse class="cls-14" cx="89.4" cy="44.57" rx="2.4" ry="3.23" transform="translate(-5.33 76.27) rotate(-45)"/><ellipse class="cls-14" cx="84.4" cy="51.57" rx="2.4" ry="3.23" transform="translate(-11.74 74.78) rotate(-45)"/><ellipse class="cls-14" cx="75.4" cy="47.57" rx="2.4" ry="3.23" transform="translate(-11.55 67.25) rotate(-45)"/><ellipse class="cls-14" cx="79.4" cy="57.57" rx="2.4" ry="3.23" transform="translate(-17.45 73) rotate(-45)"/><ellipse class="cls-14" cx="88.4" cy="61.57" rx="2.4" ry="3.23" transform="translate(-17.64 80.54) rotate(-45)"/><ellipse class="cls-15" cx="258.4" cy="305.57" rx="2.4" ry="3.23" transform="translate(-140.39 272.21) rotate(-45)"/><ellipse class="cls-15" cx="267.4" cy="300.57" rx="2.4" ry="3.23" transform="translate(-134.21 277.11) rotate(-45)"/><ellipse class="cls-15" cx="250.4" cy="309.57" rx="2.4" ry="3.23" transform="translate(-145.56 267.73) rotate(-45)"/><ellipse class="cls-15" cx="242.4" cy="314.57" rx="2.4" ry="3.23" transform="translate(-151.44 263.53) rotate(-45)"/><ellipse class="cls-15" cx="249.4" cy="295.57" rx="2.4" ry="3.23" transform="translate(-135.95 262.92) rotate(-45)"/><ellipse class="cls-15" cx="258.4" cy="290.57" rx="2.4" ry="3.23" transform="translate(-129.78 267.82) rotate(-45)"/><ellipse class="cls-15" cx="241.4" cy="299.57" rx="2.4" ry="3.23" transform="translate(-141.12 258.43) rotate(-45)"/><ellipse class="cls-15" cx="233.4" cy="304.57" rx="2.4" ry="3.23" transform="translate(-147 254.24) rotate(-45)"/><ellipse class="cls-15" cx="238.4" cy="285.57" rx="2.4" ry="3.23" transform="translate(-132.1 252.21) rotate(-45)"/><ellipse class="cls-15" cx="247.4" cy="280.57" rx="2.4" ry="3.23" transform="translate(-125.93 257.11) rotate(-45)"/><ellipse class="cls-15" cx="230.4" cy="289.57" rx="2.4" ry="3.23" transform="translate(-137.27 247.73) rotate(-45)"/><ellipse class="cls-15" cx="222.4" cy="294.57" rx="2.4" ry="3.23" transform="translate(-143.15 243.53) rotate(-45)"/></g></g></svg>