<svg xmlns="http://www.w3.org/2000/svg" viewBox="0 0 591.08 395.18"><defs><style>.cls-1{fill:#afafaf;}.cls-1,.cls-10,.cls-11,.cls-12,.cls-13,.cls-14,.cls-15,.cls-2,.cls-3,.cls-4,.cls-5,.cls-6,.cls-7,.cls-8,.cls-9{stroke:#000;}.cls-1,.cls-10,.cls-11,.cls-12,.cls-13,.cls-14,.cls-15,.cls-16,.cls-17,.cls-18,.cls-2,.cls-3,.cls-4,.cls-5,.cls-6,.cls-7,.cls-8,.cls-9{stroke-miterlimit:10;}.cls-17,.cls-2{fill:none;}.cls-3{fill:#9f9f9f;}.cls-4{fill:gray;}.cls-5{fill:#acacac;}.cls-6{fill:#999;}.cls-7{fill:#adadad;}.cls-8{fill:#c4c4c4;}.cls-9{fill:#989898;}.cls-10{fill:#666;}.cls-11{fill:#bcbcbc;}.cls-12{fill:#bbb;}.cls-13{fill:#c5c5c5;}.cls-14{fill:#878787;}.cls-15{fill:#8d8d8d;}.cls-16,.cls-17,.cls-18{stroke:#231f20;stroke-linecap:round;}.cls-16{fill-rule:evenodd;}</style></defs><title>Asset 2</title><g id="Layer_2" data-name="Layer 2"><g id="Layer_2-2" data-name="Layer 2"><path class="cls-1" d="M130,90.64c-17,13-40,17-61,17-15,0-42-67-38-81,4-24,49-28,62-24C107,3.64,136,68.64,130,90.64Z"/><path class="cls-2" d="M63,144.64"/><path class="cls-3" d="M102,134.64c-13.67,3.33-25.33,6.67-39,10l6-37c20-2,39-2,59-16C119.33,106.31,110.66,120,102,134.64Z"/><path class="cls-4" d="M63,144.64l-22-4a127.69,127.69,0,0,0-.44-22.5c-4-37-23.45-63.68-35.56-77.5,1-10,20-23,36-29-1.87.7-11,6-10,23,4,32,29,74,38,73Z"/><path class="cls-5" d="M256,370.64l-47,15c-105-91-194-253-208-317-2-9.21,2.67-18.67,4-28,20,25,40.19,58.91,36,100,1.81,3.74,4.55,9.31,8,16,34.12,66.09,94,154,114,159,0,0,27.63,37.21,62,53.07a46.72,46.72,0,0,0,5,1.93C240.1,373.78,249.5,372.41,256,370.64Z"/><path class="cls-6" d="M184,285.64l1,10c-9.26,10.44-16.71,21-22,20-16-3-74-82-122-175l21,4c.54,3.79-.31,10.39,3,17,6,12,62,109,86,131C154.29,295.66,169,293.35,184,285.64Z"/><path class="cls-4" d="M185,295.64c17,17,53,53,65,50,.33,7.67.67,18.33,1,26-33,7-73-38-88-56C169,314.64,179,303.64,185,295.64Z"/><path class="cls-1" d="M307,310.64c2,9-22,25-57,35-8.86,2.53-45-28-65-50-1-1-1-7.49-1-10,17-15,33-25,56-30C253,256.64,300,297.64,307,310.64Z"/><path class="cls-7" d="M192,278.64l-9,7c-13.93,7-27.32,12.4-32,7-26-30-66-91-88-136-2.21-4.51-.11-9.18,0-12l30-8C114,181.64,155,243.64,192,278.64Z"/><path class="cls-8" d="M211,266.64l-19,12c-42-44-73-90-99-142l9-2c2,16,19,37,31,55,35,47,48.09,67.72,61,81C197.9,274.66,208.22,267.67,211,266.64Z"/><path class="cls-9" d="M307,312.64c-6,15-38,27-57,33l1,26c14-3,27-7,41-17C298,342.64,307,328.64,307,312.64Z"/><path class="cls-10" d="M289,392.64l-8-7.13a8.21,8.21,0,0,1-7-.87l-18-14c0-5,5-10,12-9l18,15a8.27,8.27,0,0,1-.42,4.23l7.42,5.77C294,389.64,293,391.64,289,392.64Z"/><path class="cls-4" d="M291,391.64l23,3,2-4c-7.67-.67-14.33-1.33-22-2A2.65,2.65,0,0,1,291,391.64Z"/><path class="cls-10" d="M316,390.64l-2,4c11,1,12-16.67,18-25,0-3-5-5-8-4C321,375.64,321,387.64,316,390.64Z"/><path class="cls-10" d="M337,389.64l-2,4c11,1,12-16.67,18-25,0-3-5-5-8-4C342,374.64,342,386.64,337,389.64Z"/><path class="cls-10" d="M358,389.64l-2,4c11,1,12-16.67,18-25,0-3-5-5-8-4C363,374.64,363,386.64,358,389.64Z"/><path class="cls-10" d="M379,388.64l-2,4c11,1,12-16.67,18-25,0-3-5-5-8-4C384,373.64,384,385.64,379,388.64Z"/><path class="cls-10" d="M400,388.64l-2,4c11,1,12-16.67,18-25,0-3-5-5-8-4C405,373.64,405,385.64,400,388.64Z"/><path class="cls-10" d="M420,387.64l-2,4c11,1,12-16.67,18-25,0-3-5-5-8-4C425,372.64,425,384.64,420,387.64Z"/><path class="cls-11" d="M335,393.64l2-4c-5-1-6.2-16.17-6-19-1,2-1,3-2,5C328,385.64,331,392.64,335,393.64Z"/><path class="cls-12" d="M356,393.64l2-4c-5-1-6.2-16.17-6-19-1,2-1,3-2,5C349,385.64,352,392.64,356,393.64Z"/><path class="cls-12" d="M377,392.64l2-4c-5-1-6.2-16.17-6-19-1,2-1,3-2,5C370,384.64,373,391.64,377,392.64Z"/><path class="cls-12" d="M398,392.64l2-4c-5-1-6.2-16.17-6-19-1,2-1,3-2,5C391,384.64,394,391.64,398,392.64Z"/><path class="cls-12" d="M418,391.64l2-4a31.34,31.34,0,0,1-5-19c-1,2-1,3-2,5A19.87,19.87,0,0,0,414.12,386,19,19,0,0,0,418,391.64Z"/><path class="cls-2" d="M415,393.64"/><path class="cls-13" d="M53,31.64c5.32-11,18.07-20.83,30.58-19.52C107.52,14.63,126,57.31,111,78.64A30.54,30.54,0,0,1,83.57,91C60.6,88.4,41.89,54.67,53,31.64Z"/><ellipse class="cls-14" cx="80.4" cy="41.36" rx="2.4" ry="3.23" transform="translate(-5.7 68.96) rotate(-45)"/><ellipse class="cls-14" cx="93.4" cy="55.36" rx="2.4" ry="3.23" transform="translate(-11.79 82.26) rotate(-45)"/><ellipse class="cls-14" cx="89.4" cy="45.36" rx="2.4" ry="3.23" transform="translate(-5.89 76.5) rotate(-45)"/><ellipse class="cls-14" cx="84.4" cy="52.36" rx="2.4" ry="3.23" transform="translate(-12.3 75.01) rotate(-45)"/><ellipse class="cls-14" cx="75.4" cy="48.36" rx="2.4" ry="3.23" transform="translate(-12.11 67.48) rotate(-45)"/><ellipse class="cls-14" cx="79.4" cy="58.36" rx="2.4" ry="3.23" transform="translate(-18.01 73.23) rotate(-45)"/><ellipse class="cls-14" cx="88.4" cy="62.36" rx="2.4" ry="3.23" transform="translate(-18.2 80.77) rotate(-45)"/><ellipse class="cls-15" cx="258.4" cy="306.36" rx="2.4" ry="3.23" transform="translate(-140.94 272.44) rotate(-45)"/><ellipse class="cls-15" cx="267.4" cy="301.36" rx="2.4" ry="3.23" transform="translate(-134.77 277.34) rotate(-45)"/><ellipse class="cls-15" cx="250.4" cy="310.36" rx="2.4" ry="3.23" transform="translate(-146.12 267.96) rotate(-45)"/><ellipse class="cls-15" cx="242.4" cy="315.36" rx="2.4" ry="3.23" transform="translate(-151.99 263.77) rotate(-45)"/><ellipse class="cls-15" cx="249.4" cy="296.36" rx="2.4" ry="3.23" transform="translate(-136.51 263.15) rotate(-45)"/><ellipse class="cls-15" cx="258.4" cy="291.36" rx="2.4" ry="3.23" transform="translate(-130.34 268.05) rotate(-45)"/><ellipse class="cls-15" cx="241.4" cy="300.36" rx="2.4" ry="3.23" transform="translate(-141.68 258.67) rotate(-45)"/><ellipse class="cls-15" cx="233.4" cy="305.36" rx="2.4" ry="3.23" transform="translate(-147.56 254.47) rotate(-45)"/><ellipse class="cls-15" cx="238.4" cy="286.36" rx="2.4" ry="3.23" transform="translate(-132.66 252.44) rotate(-45)"/><ellipse class="cls-15" cx="247.4" cy="281.36" rx="2.4" ry="3.23" transform="translate(-126.49 257.34) rotate(-45)"/><ellipse class="cls-15" cx="230.4" cy="290.36" rx="2.4" ry="3.23" transform="translate(-137.83 247.96) rotate(-45)"/><ellipse class="cls-15" cx="222.4" cy="295.36" rx="2.4" ry="3.23" transform="translate(-143.71 243.77) rotate(-45)"/><line class="cls-2" x1="152" y1="7.64" x2="586" y2="11.64"/><path class="cls-2" d="M152.5,23.64l438.5,77"/><path class="cls-2" d="M152.5,38.64l409.5,166"/><path class="cls-2" d="M152.5,56.64l281.5,207"/><path class="cls-16" d="M182,86.66c1.41-7.25,13.35-12.23,19-8a8.38,8.38,0,0,1,3,8c-1.49,7.42-15,11.57-20,7A7.73,7.73,0,0,1,182,86.66Z"/><path class="cls-17" d="M203,32.64l1,54"/><path class="cls-17" d="M248,18.64l1,54"/><path class="cls-18" d="M290,.64l-87,22v16l87-24Z"/><path class="cls-16" d="M269,65.66c1.41-7.25,13.35-12.23,19-8a8.38,8.38,0,0,1,3,8c-1.49,7.42-15,11.57-20,7A7.73,7.73,0,0,1,269,65.66Z"/><path class="cls-16" d="M227,74.66c1.41-7.25,13.35-12.23,19-8a8.38,8.38,0,0,1,3,8c-1.49,7.42-15,11.57-20,7A7.73,7.73,0,0,1,227,74.66Z"/><path class="cls-17" d="M290,11.64l1,54"/><path class="cls-16" d="M366.1,41.13c2.12-10.94,20.13-18.45,28.62-12.09a12.64,12.64,0,0,1,4.56,12.09C397,52.32,376.6,58.58,369.08,51.67,366.12,48.95,365.45,44.47,366.1,41.13Z"/><path class="cls-16" d="M421.1,75.13c2.12-10.94,20.13-18.45,28.62-12.09a12.64,12.64,0,0,1,4.56,12.09C452,86.32,431.6,92.58,424.08,85.67,421.12,82.95,420.45,78.47,421.1,75.13Z"/><path class="cls-16" d="M478.16,123.49c2.7-13.91,25.61-23.46,36.4-15.38a16.07,16.07,0,0,1,5.8,15.38c-2.86,14.23-28.84,22.19-38.42,13.4C478.19,133.42,477.34,127.73,478.16,123.49Z"/><path class="cls-17" d="M366,43.64l1,54"/><path class="cls-17" d="M421,77.64l1,54"/><path class="cls-17" d="M478,128.64l1,54"/><path class="cls-18" d="M479,196.64l-111-82-1-19,112,73Z"/></g></g></svg>