<svg xmlns="http://www.w3.org/2000/svg" viewBox="0 0 647.58 432.89"><defs><style>.cls-1{fill:#afafaf;}.cls-1,.cls-10,.cls-11,.cls-12,.cls-13,.cls-14,.cls-15,.cls-2,.cls-3,.cls-4,.cls-5,.cls-6,.cls-7,.cls-8,.cls-9{stroke:#000;}.cls-1,.cls-10,.cls-11,.cls-12,.cls-13,.cls-14,.cls-15,.cls-16,.cls-17,.cls-18,.cls-2,.cls-3,.cls-4,.cls-5,.cls-6,.cls-7,.cls-8,.cls-9{stroke-miterlimit:10;}.cls-17,.cls-2{fill:none;}.cls-3{fill:#9f9f9f;}.cls-4{fill:gray;}.cls-5{fill:#acacac;}.cls-6{fill:#999;}.cls-7{fill:#adadad;}.cls-8{fill:#c4c4c4;}.cls-9{fill:#989898;}.cls-10{fill:#666;}.cls-11{fill:#bcbcbc;}.cls-12{fill:#bbb;}.cls-13{fill:#c5c5c5;}.cls-14{fill:#878787;}.cls-15{fill:#8d8d8d;}.cls-16,.cls-17,.cls-18{stroke:#231f20;stroke-linecap:round;}.cls-16{fill-rule:evenodd;}</style></defs><title>Asset 4</title><g id="Layer_2" data-name="Layer 2"><g id="Layer_3" data-name="Layer 3"><path class="cls-1" d="M142.39,99.25c-18.63,14.24-43.83,18.63-66.84,18.63-16.44,0-46-73.41-41.64-88.75C38.3,2.83,87.6-1.55,101.85,2.83,117.19,3.93,149,75.15,142.39,99.25Z"/><path class="cls-2" d="M69,158.42"/><path class="cls-3" d="M111.71,147.46c-15,3.65-27.76,7.3-42.73,11l6.57-40.54c21.91-2.19,42.73-2.19,64.65-17.53C130.7,116.42,121.2,131.39,111.71,147.46Z"/><path class="cls-4" d="M69,158.42,44.87,154a139.91,139.91,0,0,0-.48-24.65C40,88.83,18.7,59.62,5.43,44.47c1.1-11,21.91-25.2,39.44-31.77-2.05.77-12.05,6.57-11,25.2C38.3,73,65.69,119,75.55,117.88Z"/><path class="cls-5" d="M280.44,406l-51.5,16.44C113.9,322.77,16.38,145.27,1,75.15-1.16,65.06,4,54.7,5.43,44.47,27.34,71.86,49.47,109,44.87,154c2,4.09,5,10.2,8.77,17.53C91,244,156.63,340.3,178.54,345.78c0,0,30.27,40.77,67.92,58.15A51.19,51.19,0,0,0,252,406C263,409.49,273.32,408,280.44,406Z"/><path class="cls-6" d="M201.55,312.91l1.1,11c-10.15,11.44-18.31,23-24.11,21.91C161,342.5,97.46,255.94,44.87,154l23,4.38c.59,4.15-.34,11.38,3.29,18.63,6.57,13.15,67.93,119.43,94.23,143.53C169,323.89,185.13,321.36,201.55,312.91Z"/><path class="cls-4" d="M202.65,323.87c18.63,18.63,58.07,58.07,71.22,54.78.37,8.4.73,20.09,1.1,28.49-36.16,7.67-80-41.64-96.42-61.36C185.12,344.69,196.08,332.63,202.65,323.87Z"/><path class="cls-1" d="M336.32,340.3c2.19,9.86-24.11,27.39-62.45,38.35-9.71,2.78-49.31-30.68-71.22-54.78-1-1.15-1.12-8.2-1.1-11,18.63-16.44,36.16-27.39,61.36-32.87C277.16,281.14,328.65,326.06,336.32,340.3Z"/><path class="cls-7" d="M210.32,305.24l-9.86,7.67c-15.27,7.67-29.93,13.59-35.06,7.67-28.49-32.87-72.32-99.71-96.42-149-2.42-4.95-.12-10.06,0-13.15l32.87-8.77C124.86,199,169.78,266.89,210.32,305.24Z"/><path class="cls-8" d="M231.14,292.09l-20.82,13.15c-46-48.21-80-98.61-108.47-155.59l9.86-2.19c2.19,17.53,20.82,40.54,34,60.26,38.35,51.5,52.69,74.2,66.84,88.75C216.79,300.88,228.1,293.22,231.14,292.09Z"/><path class="cls-9" d="M336.32,342.5c-6.57,16.44-41.64,29.58-62.45,36.16l1.1,28.49c15.34-3.29,29.58-7.67,44.92-18.63C326.46,375.37,336.32,360,336.32,342.5Z"/><path class="cls-10" d="M316.6,430.15l-8.79-7.81a9,9,0,0,1-7.65-1L280.44,406c0-5.48,5.48-11,13.15-9.86l19.72,16.44a9.07,9.07,0,0,1-.46,4.63l8.13,6.32C322.08,426.86,321,429.05,316.6,430.15Z"/><path class="cls-4" d="M318.79,429.05l25.2,3.29,2.19-4.38c-8.4-.73-15.7-1.46-24.11-2.19Q322.08,429.05,318.79,429.05Z"/><path class="cls-10" d="M346.18,428,344,432.34c12.05,1.1,13.15-18.26,19.72-27.39,0-3.29-5.48-5.48-8.77-4.38C351.66,411.52,351.66,424.67,346.18,428Z"/><path class="cls-10" d="M369.19,426.86,367,431.25c12.05,1.1,13.15-18.26,19.72-27.39,0-3.29-5.48-5.48-8.77-4.38C374.67,410.43,374.67,423.58,369.19,426.86Z"/><path class="cls-10" d="M392.2,426.86,390,431.25c12.05,1.1,13.15-18.26,19.72-27.39,0-3.29-5.48-5.48-8.77-4.38C397.68,410.43,397.68,423.58,392.2,426.86Z"/><path class="cls-10" d="M415.21,425.77,413,430.15c12.05,1.1,13.15-18.26,19.72-27.39,0-3.29-5.48-5.48-8.77-4.38C420.69,409.33,420.69,422.48,415.21,425.77Z"/><path class="cls-10" d="M438.22,425.77,436,430.15c12.05,1.1,13.15-18.26,19.72-27.39,0-3.29-5.48-5.48-8.77-4.38C443.7,409.33,443.7,422.48,438.22,425.77Z"/><path class="cls-10" d="M460.13,424.67l-2.19,4.38c12.05,1.1,13.15-18.26,19.72-27.39,0-3.29-5.48-5.48-8.77-4.38C465.61,408.24,465.61,421.38,460.13,424.67Z"/><path class="cls-11" d="M367,431.25l2.19-4.38c-5.48-1.1-6.8-17.71-6.57-20.82-1.1,2.19-1.1,3.29-2.19,5.48C359.33,422.48,362.62,430.15,367,431.25Z"/><path class="cls-12" d="M390,431.25l2.19-4.38c-5.48-1.1-6.8-17.71-6.57-20.82-1.1,2.19-1.1,3.29-2.19,5.48C382.34,422.48,385.63,430.15,390,431.25Z"/><path class="cls-12" d="M413,430.15l2.19-4.38c-5.48-1.1-6.8-17.71-6.57-20.82-1.1,2.19-1.1,3.29-2.19,5.48C405.35,421.38,408.64,429.05,413,430.15Z"/><path class="cls-12" d="M436,430.15l2.19-4.38c-5.48-1.1-6.8-17.71-6.57-20.82-1.1,2.19-1.1,3.29-2.19,5.48C428.36,421.38,431.65,429.05,436,430.15Z"/><path class="cls-12" d="M457.94,429.05l2.19-4.38a34.34,34.34,0,0,1-5.48-20.82c-1.1,2.19-1.1,3.29-2.19,5.48a21.77,21.77,0,0,0,1.23,13.56A20.78,20.78,0,0,0,457.94,429.05Z"/><path class="cls-2" d="M454.66,431.25"/><path class="cls-13" d="M58,34.61c5.83-12.09,19.79-22.82,33.5-21.39,26.23,2.74,46.46,49.51,30,72.88a33.46,33.46,0,0,1-30,13.53C66.35,96.8,45.85,59.84,58,34.61Z"/><ellipse class="cls-14" cx="88.04" cy="45.25" rx="2.63" ry="3.54" transform="translate(-6.21 75.51) rotate(-45)"/><ellipse class="cls-14" cx="102.29" cy="60.59" rx="2.63" ry="3.54" transform="translate(-12.89 90.07) rotate(-45)"/><ellipse class="cls-14" cx="97.9" cy="49.64" rx="2.63" ry="3.54" transform="translate(-6.42 83.77) rotate(-45)"/><ellipse class="cls-14" cx="92.42" cy="57.31" rx="2.63" ry="3.54" transform="translate(-13.45 82.14) rotate(-45)"/><ellipse class="cls-14" cx="82.56" cy="52.92" rx="2.63" ry="3.54" transform="translate(-13.24 73.88) rotate(-45)"/><ellipse class="cls-14" cx="86.95" cy="63.88" rx="2.63" ry="3.54" transform="translate(-19.7 80.19) rotate(-45)"/><ellipse class="cls-14" cx="96.81" cy="68.26" rx="2.63" ry="3.54" transform="translate(-19.91 88.45) rotate(-45)"/><ellipse class="cls-15" cx="283.07" cy="335.61" rx="2.63" ry="3.54" transform="translate(-154.4 298.46) rotate(-45)"/><ellipse class="cls-15" cx="292.93" cy="330.13" rx="2.63" ry="3.54" transform="translate(-147.64 303.83) rotate(-45)"/><ellipse class="cls-15" cx="274.31" cy="339.99" rx="2.63" ry="3.54" transform="translate(-160.07 293.55) rotate(-45)"/><ellipse class="cls-15" cx="265.54" cy="345.47" rx="2.63" ry="3.54" transform="translate(-166.51 288.95) rotate(-45)"/><ellipse class="cls-15" cx="273.21" cy="324.65" rx="2.63" ry="3.54" transform="translate(-149.54 288.28) rotate(-45)"/><ellipse class="cls-15" cx="283.07" cy="319.17" rx="2.63" ry="3.54" transform="translate(-142.78 293.65) rotate(-45)"/><ellipse class="cls-15" cx="264.45" cy="329.03" rx="2.63" ry="3.54" transform="translate(-155.21 283.36) rotate(-45)"/><ellipse class="cls-15" cx="255.68" cy="334.51" rx="2.63" ry="3.54" transform="translate(-161.65 278.77) rotate(-45)"/><ellipse class="cls-15" cx="261.16" cy="313.7" rx="2.63" ry="3.54" transform="translate(-145.32 276.55) rotate(-45)"/><ellipse class="cls-15" cx="271.02" cy="308.22" rx="2.63" ry="3.54" transform="translate(-138.56 281.91) rotate(-45)"/><ellipse class="cls-15" cx="252.39" cy="318.08" rx="2.63" ry="3.54" transform="translate(-150.99 271.63) rotate(-45)"/><ellipse class="cls-15" cx="243.63" cy="323.56" rx="2.63" ry="3.54" transform="translate(-157.43 267.04) rotate(-45)"/><line class="cls-2" x1="166.49" y1="8.31" x2="642.02" y2="12.69"/><path class="cls-2" d="M167,25.84,647.5,110.21"/><path class="cls-2" d="M167,42.28,615.72,224.16"/><path class="cls-2" d="M167,62,475.47,288.81"/><path class="cls-16" d="M199.39,94.89c1.54-7.95,14.63-13.4,20.79-8.78a9.18,9.18,0,0,1,3.32,8.78c-1.63,8.13-16.47,12.67-21.94,7.65A8.47,8.47,0,0,1,199.39,94.89Z"/><path class="cls-17" d="M222.37,35.7l1.1,59.17"/><path class="cls-17" d="M271.68,20.36l1.1,59.17"/><path class="cls-18" d="M317.7.64,222.37,24.75V42.28L317.7,16Z"/><path class="cls-16" d="M294.71,71.88c1.54-7.95,14.63-13.4,20.79-8.78a9.18,9.18,0,0,1,3.32,8.78c-1.63,8.13-16.47,12.67-21.94,7.65A8.47,8.47,0,0,1,294.71,71.88Z"/><path class="cls-16" d="M248.69,81.74c1.54-7.95,14.63-13.4,20.79-8.78a9.18,9.18,0,0,1,3.32,8.78c-1.63,8.13-16.47,12.67-21.94,7.65A8.47,8.47,0,0,1,248.69,81.74Z"/><path class="cls-17" d="M317.7,12.69l1.1,59.17"/><path class="cls-16" d="M401.08,45c2.33-12,22.06-20.21,31.36-13.25a13.85,13.85,0,0,1,5,13.25c-2.46,12.26-24.85,19.12-33.1,11.54C401.1,53.57,400.37,48.66,401.08,45Z"/><path class="cls-16" d="M461.34,82.26C463.67,70.27,483.4,62,492.7,69a13.85,13.85,0,0,1,5,13.25c-2.46,12.26-24.85,19.12-33.1,11.54C461.36,90.82,460.63,85.91,461.34,82.26Z"/><path class="cls-16" d="M523.86,135.24c3-15.25,28.06-25.71,39.88-16.85a17.61,17.61,0,0,1,6.36,16.85C567,150.83,538.5,159.55,528,149.92,523.89,146.13,523,139.88,523.86,135.24Z"/><path class="cls-17" d="M401,47.76l1.1,59.17"/><path class="cls-17" d="M461.23,85l1.1,59.17"/><path class="cls-17" d="M523.68,140.89l1.1,59.17"/><path class="cls-18" d="M524.78,215.4,403.16,125.55l-1.1-20.82,122.72,80Z"/></g></g></svg>