<svg xmlns="http://www.w3.org/2000/svg" viewBox="0 0 320.19 686.26"><defs><style>.cls-1{fill:#231f20;}.cls-2{fill:#ff2900;}.cls-3{fill:#941400;}.cls-4{fill:#e81f1f;}.cls-5,.cls-6{fill:none;stroke-miterlimit:10;}.cls-5{stroke:#000;}.cls-6{stroke:#231f20;stroke-linecap:round;}</style></defs><title>Asset 1</title><g id="Layer_2" data-name="Layer 2"><g id="Layer_2-2" data-name="Layer 2"><path class="cls-1" d="M245.26,651.16c23.47-5.69,46.94-11.37,70.4-17.58,2.66.74,3.36,1.92,4,9l-140,43v-18l48.75-12.28c5.43-1.32,11-2.69,16.59-4.08Z"/><path d="M179.66,667.58v18l-179-36c.68-2.73.32-5.27,1-8,.32-1.27,1.68-2.73,2-4l140.28,23.91,17.72,3.09v-.07Z"/><path class="cls-2" d="M253.1,19c-1.68-.28-3.36-.52-5-.7-21.73-2.77-40.32,1.64-57.12,10.19a118.47,118.47,0,0,0-11.29,6.14,5.91,5.91,0,0,0-1,1c-37-19-80-24-116-15,32-13,64-21,99-20C216.63,2.41,227.12,12.64,253.1,19Z"/><path class="cls-3" d="M254.06,19.18c2.09.5,4.28,1,6.6,1.4Q257.31,19.77,254.06,19.18Zm-25.39,8.63C212.5,29.54,195.77,35.2,179,44.38l-.38.2v-9a133,133,0,0,1,12.29-7.14c16.4-7.78,36.25-12.55,57.12-10.19,1.94.24,3.92.55,5.92.92L253.1,19c21.2,3.56,43.22,14.7,63.56,37.63l-5,8A113.84,113.84,0,0,0,297,49.18c-20.91-19.54-45.1-24.3-68.21-21.38Z"/><path class="cls-3" d="M178.66,35.58v9a164.26,164.26,0,0,0-39.22-15c-30.42-7.92-58.16-6.25-83,2.49A133,133,0,0,0,9.66,58.58a28.65,28.65,0,0,0-2.85,2.87h0l-.14.12-6-8c.33-.34.66-.67,1-1C24.7,29.92,90.55-6.2,178.66,35.58Z"/><path class="cls-4" d="M311.66,64.58q.5,20,1,40l-134-15v-45l.38-.2,1.62-.8s3.53-1.31,7-3c12.53-6.09,26.56-10.93,41-12.77h.11c24.72-2.61,48.12,4,68.21,21.38a105.63,105.63,0,0,1,13.23,15Zm-15,32q.5-12,1-24l-99.5-14.5q-.25,12.75-.5,25.5Z"/><path class="cls-4" d="M178.66,44.58v45c-24.68,1.71-49.35,3.61-74,5.53l-1.67.13L5.66,102.51c.33-13.31.67-27.62,1-40.93,0,0,.08,0,.14-.12h0c15-12.89,31.52-23,49.63-29.36,26.81-8.71,55.79-9.06,83-2.49A201.05,201.05,0,0,1,178.66,44.58Zm-23,39v-26l-130,12q.5,12.49,1,25Z"/><path class="cls-3" d="M304.66,137.58q.5,221,1,442l-95,23q-.5-236-1-472Zm-3,437v-48l-9,1v48Zm0-53v-48l-9,1v48Zm0-55v-48l-9,1v48Zm0-55v-48l-9,1v48Zm0-54v-49h-9v49Zm0-55v-49h-9v49Zm0-55v-50h-9v50Zm-1-55v-50l-8-1v51Zm-12,220v-47l-60,4v50Zm0-55v-48l-60,2v50Zm-1-166q.5-25,1-50l-61-5v53Zm0,111q.5-24.5,1-49h-60v51Zm0,220v-47l-59,9v50Zm0-55v-47l-59,6v50Zm0-221v-49l-59-2v51Zm-1,330q.5-23.51,1-47l-59,12v50Zm-63,16v-50l-9,1v52Zm0-56v-52l-9,1v52Zm0-57v-52l-9,1v52Zm0-58v-51h-10v52Zm0-58v-51h-10v52Zm0-58v-52h-10v52Zm0-58v-52h-10v52Zm-1-59v-52h-9v52Z"/><path class="cls-4" d="M209.66,130.58q.5,236,1,472l95-23q-.5-221-1-442ZM199.41,341.25c0,7.76,1.9,14.05,4.24,14.05s4.24-6.29,4.24-14.05-1.9-14.05-4.24-14.05S199.41,333.49,199.41,341.25Zm-1.75,321.33v-555l115,12c0,171.67,2,342.33,2,514L233.48,654q-7.74,1.89-15.48,3.8l-.24.06C210.41,659.64,203.58,661.24,197.66,662.58Z"/><path class="cls-2" d="M312.66,119.58l-115-12v555c5.92-1.34,12.75-2.94,20.1-4.7q-19,4.7-38.1,9.7l-18-3.09V110.58l-149,9v519l121.06,21.13L4.66,637.58v-535l1-.07v.07c32.44-2.25,64.88-4.82,97.31-7.34l1.67-.13,74-5.53,137,16-1,528C314.66,461.91,312.66,291.25,312.66,119.58Z"/><path class="cls-3" d="M145.66,129.58q1,237.5,2,475l-123-18v-451Zm-4,466v-51h-12v50Zm0-57v-51h-12v50Zm0-58v-51h-12v50Zm0-58v-51h-12v51Zm-1-59v-51h-11v51Zm0-58v-51h-11v51Zm0-59v-51h-11v51Zm0-58v-51h-12v51Zm-17,403v-48l-76-9q.49,23.5,1,47Zm0-56v-48l-76-9q.49,23.5,1,47Zm0-57v-50l-76-5q.49,23.5,1,47Zm0-58v-50l-77-3q.49,24.5,1,49Zm0-57v-51l-77-2v50Zm-1-58v-51h-77v50Zm0-59v-51l-77,2v50Zm0-58v-51l-77,4v50Zm-81,392v-48h-11v47Zm0-55v-48h-11v48Zm0-55v-48h-11v48Zm0-55v-49h-11v49Zm-1-56v-49h-11v49Zm0-56v-49h-11v49Zm0-112v-50l-12,1v50Zm-1,57v-50h-11v50Z"/><path class="cls-4" d="M161.66,110.58V664.49l-27.94-4.78L12.66,638.58v-519Zm-14,494q-1-237.5-2-475l-121,6v451Z"/><polyline class="cls-5" points="104.64 95.11 178.66 89.58 315.66 105.58 314.66 633.58"/><polyline class="cls-5" points="133.72 659.71 4.66 637.58 4.66 102.58 5.66 102.51 102.97 95.24"/><polyline class="cls-5" points="228.41 655.3 179.66 667.58 161.66 664.49"/><path class="cls-5" d="M45.66,197.58l77-2v51l-77,1Z"/><path class="cls-5" d="M40.66,141.58v50l-12,1v-50Z"/><rect class="cls-5" x="28.66" y="198.58" width="11" height="50"/><rect class="cls-5" x="29.66" y="254.58" width="11" height="49"/><rect class="cls-5" x="29.66" y="310.58" width="11" height="49"/><path class="cls-5" d="M45.66,304.58v-50h77v51Z"/><path class="cls-5" d="M47.66,534.58l76,9v48l-75-10Q48.16,558.08,47.66,534.58Z"/><path class="cls-5" d="M47.66,478.58l76,9v48l-75-10Q48.16,502.08,47.66,478.58Z"/><path class="cls-5" d="M47.66,423.58l76,5v50l-75-8Q48.16,447.08,47.66,423.58Z"/><path class="cls-5" d="M46.66,367.58l77,3v50l-76-4Q47.16,392.09,46.66,367.58Z"/><path class="cls-5" d="M46.66,310.58l77,2v51l-77-3Z"/><rect class="cls-5" x="129.66" y="254.58" width="11" height="51"/><rect class="cls-5" x="129.66" y="312.58" width="11" height="51"/><rect class="cls-5" x="129.66" y="195.58" width="11" height="51"/><path class="cls-5" d="M129.66,544.58h12v51l-12-1Z"/><path class="cls-5" d="M129.66,487.58h12v51l-12-1Z"/><path class="cls-5" d="M129.66,429.58h12v51l-12-1Z"/><rect class="cls-5" x="129.66" y="371.58" width="12" height="51"/><rect class="cls-5" x="128.66" y="137.58" width="12" height="51"/><path class="cls-5" d="M45.66,141.58l77-4v51l-77,3Z"/><rect class="cls-5" x="213.66" y="136.58" width="9" height="52"/><rect class="cls-5" x="213.66" y="195.58" width="10" height="52"/><rect class="cls-5" x="213.66" y="253.58" width="10" height="52"/><path class="cls-5" d="M223.66,363.58l-10,1v-52h10Z"/><path class="cls-5" d="M223.66,421.58l-10,1v-52h10Z"/><path class="cls-5" d="M223.66,479.58l-9,1v-52l9-1Z"/><path class="cls-5" d="M223.66,536.58l-9,1v-52l9-1Z"/><path class="cls-5" d="M223.66,592.58l-9,3v-52l9-1Z"/><path class="cls-5" d="M287.66,529.58q-.5,23.5-1,47l-58,15v-50Z"/><path class="cls-5" d="M287.66,197.58v49h-59v-51Z"/><path class="cls-5" d="M287.66,467.58l-59,9v-50l59-6Z"/><path class="cls-5" d="M287.66,522.58l-59,12v-50l59-9Z"/><path class="cls-5" d="M288.66,253.58q-.5,24.5-1,49l-59,2v-51Z"/><path class="cls-5" d="M288.66,141.58q-.5,25-1,50l-60-2v-53Z"/><path class="cls-5" d="M288.66,357.58l-60,4v-50l60-2Z"/><path class="cls-5" d="M288.66,412.58l-60,7v-50l60-4Z"/><path class="cls-5" d="M292.66,141.58l8,1v50h-8Z"/><rect class="cls-5" x="292.66" y="197.58" width="9" height="50"/><rect class="cls-5" x="292.66" y="253.58" width="9" height="49"/><rect class="cls-5" x="292.66" y="308.58" width="9" height="49"/><path class="cls-5" d="M301.66,411.58l-9,1v-48l9-1Z"/><path class="cls-5" d="M301.66,466.58l-9,1v-48l9-1Z"/><path class="cls-5" d="M301.66,521.58l-9,1v-48l9-1Z"/><path class="cls-5" d="M301.66,574.58l-9,1v-48l9-1Z"/><path class="cls-6" d="M203.66,330.58a25.77,25.77,0,0,0,0,20"/><path class="cls-6" d="M133.72,659.71l10.22,1.78,17.72,3.09v-.09"/><path class="cls-6" d="M161.66,664.49V110.58l-149,9v519l121.06,21.13Z"/><path class="cls-6" d="M147.66,604.58l-123-18v-451l121-6Q146.66,367.08,147.66,604.58Z"/><path class="cls-6" d="M245.26,651.16c35.13-8.69,70.38-17.8,69.4-17.58"/><path class="cls-6" d="M228.41,655.3c5.43-1.32,11-2.69,16.59-4.08"/><path class="cls-6" d="M218,657.82c3.38-.81,6.86-1.65,10.41-2.52l5.07-1.28,81.18-20.44c0-171.67-2-342.33-2-514l-115-12v555c5.92-1.34,12.75-2.94,20.1-4.7"/><ellipse class="cls-6" cx="203.65" cy="341.25" rx="4.24" ry="14.05"/><path class="cls-6" d="M305.66,579.58l-95,23q-.5-236-1-472l95,7Q305.15,358.58,305.66,579.58Z"/><path class="cls-6" d="M179.66,685.58l-179-36c.68-2.73.32-5.27,1-8,.32-1.27,1.68-2.73,2-4l140.28,23.91,17.72,3,18,3.07"/><path class="cls-6" d="M179.66,685.58l140-43c-.64-7.08-1.34-8.26-4-9-23.46,6.21-46.93,11.89-70.4,17.58l-.26.06L233.48,654q-7.74,1.89-15.48,3.8l-.24.06q-19,4.7-38.1,9.7Z"/><path class="cls-5" d="M178.66,89.58c-24.68,1.71-49.35,3.61-74,5.53l-1.67.13c-32.43,2.52-64.87,5.09-97.31,7.34v-.07c.33-13.31.67-27.62,1-40.93l.14-.12"/><path class="cls-5" d="M6.81,61.45c15-12.89,31.52-23,49.63-29.36,24.84-8.74,52.58-10.41,83-2.49a201.05,201.05,0,0,1,39.22,15"/><path class="cls-5" d="M178.66,44.58v45l134,15q-.5-20-1-40A113.84,113.84,0,0,0,297,49.18c-20.09-17.39-43.49-24-68.21-21.38"/><path class="cls-5" d="M228.67,27.81C212.5,29.54,195.77,35.2,179,44.38"/><path class="cls-5" d="M178.53,35.55l.13,0c-88.11-41.78-154-5.66-177,17-.34.33-.67.66-1,1l6,8s.08,0,.14-.12h0a28.65,28.65,0,0,1,2.85-2.87A133,133,0,0,1,56.44,32.09c26.81-8.71,55.79-9.06,83-2.49a164.26,164.26,0,0,1,39.22,15"/><path class="cls-5" d="M311.66,64.58l5-8C296.32,33.65,274.3,22.51,253.1,19c-1.68-.28-3.36-.52-5-.7-20.87-2.36-40.72,2.41-57.12,10.19a118.47,118.47,0,0,0-11.29,6.14,5.91,5.91,0,0,0-1,1v9l.38-.2,1.62-.8s3.53-1.31,7-3c12.53-6.09,26.56-10.93,41-12.77h.11c23.11-2.92,47.3,1.84,68.21,21.38a105.63,105.63,0,0,1,13.23,15Z"/><path class="cls-5" d="M254,19.17c-2-.37-4-.68-5.92-.92-21.73-2.77-40.32,1.64-57.12,10.19a133,133,0,0,0-12.29,7.14c-37-19-80-24-116-15,32-13,64-21,99-20,55,1.83,65.46,12.06,91.44,18.37l.89.22"/><path class="cls-5" d="M254,19.17h.07"/><path class="cls-5" d="M254.06,19.18c2.09.5,4.28,1,6.6,1.4Q257.31,19.77,254.06,19.18Z"/><rect class="cls-5" x="30.66" y="366.58" width="11" height="49"/><rect class="cls-5" x="30.66" y="422.58" width="11" height="48"/><rect class="cls-5" x="30.66" y="477.58" width="11" height="48"/><path class="cls-5" d="M41.66,580.58l-11-1v-47h11Z"/><path class="cls-5" d="M155.66,83.58l-129,11q-.49-12.49-1-25l130-12Z"/><path class="cls-5" d="M296.66,96.58l-99-13q.25-12.75.5-25.5l99.5,14.5Q297.16,84.58,296.66,96.58Z"/></g></g></svg>